<?xml version="1.0" encoding="UTF-8" standalone="no"?>
<svg
   xmlns:dc="http://purl.org/dc/elements/1.1/"
   xmlns:cc="http://creativecommons.org/ns#"
   xmlns:rdf="http://www.w3.org/1999/02/22-rdf-syntax-ns#"
   xmlns:svg="http://www.w3.org/2000/svg"
   xmlns="http://www.w3.org/2000/svg"
   xmlns:sodipodi="http://sodipodi.sourceforge.net/DTD/sodipodi-0.dtd"
   xmlns:inkscape="http://www.inkscape.org/namespaces/inkscape"
   fill="#3c4043"
   version="1.1"
   id="Capa_1"
   x="0px"
   y="0px"
   width="512"
   height="291.85892"
   viewBox="0 0 511.99999 291.85893"
   xml:space="preserve"
   sodipodi:docname="arrow-down.svg"
   inkscape:version="1.0.2 (e86c870879, 2021-01-15, custom)"><metadata
   id="metadata41"><rdf:RDF><cc:Work
       rdf:about=""><dc:format>image/svg+xml</dc:format><dc:type
         rdf:resource="http://purl.org/dc/dcmitype/StillImage" /><dc:title></dc:title></cc:Work></rdf:RDF></metadata><defs
   id="defs39" /><sodipodi:namedview
   pagecolor="#ffffff"
   bordercolor="#666666"
   borderopacity="1"
   objecttolerance="10"
   gridtolerance="10"
   guidetolerance="10"
   inkscape:pageopacity="0"
   inkscape:pageshadow="2"
   inkscape:window-width="640"
   inkscape:window-height="480"
   id="namedview37"
   showgrid="false"
   fit-margin-top="0"
   fit-margin-left="0"
   fit-margin-right="0"
   fit-margin-bottom="0"
   inkscape:zoom="1.389851"
   inkscape:cx="238.85504"
   inkscape:cy="173.41332"
   inkscape:current-layer="g4"
   inkscape:document-rotation="0" />
<g
   id="g4"
   transform="translate(12.932035,-110.07029)">
	<path
   d="M 217.72133,391.42854 -2.4236944,171.27671 c -14.0111206,-14.00432 -14.0111206,-36.70992 0,-50.70743 13.9986504,-13.99865 36.7031104,-13.99865 50.7006304,0 L 243.07164,315.36966 437.85957,120.57494 c 14.00431,-13.99864 36.70651,-13.99864 50.70516,0 14.00431,13.99865 14.00431,36.70312 0,50.70743 L 268.41629,391.4342 c -7.00272,6.99933 -16.17085,10.49501 -25.34351,10.49501 -9.1772,0 -18.35213,-3.50248 -25.35145,-10.50067 z"
   id="path2"
   style="stroke-width:1.13313" />
</g>
<g
   id="g6"
   transform="translate(12.932035,-110.07029)">
</g>
<g
   id="g8"
   transform="translate(12.932035,-110.07029)">
</g>
<g
   id="g10"
   transform="translate(12.932035,-110.07029)">
</g>
<g
   id="g12"
   transform="translate(12.932035,-110.07029)">
</g>
<g
   id="g14"
   transform="translate(12.932035,-110.07029)">
</g>
<g
   id="g16"
   transform="translate(12.932035,-110.07029)">
</g>
<g
   id="g18"
   transform="translate(12.932035,-110.07029)">
</g>
<g
   id="g20"
   transform="translate(12.932035,-110.07029)">
</g>
<g
   id="g22"
   transform="translate(12.932035,-110.07029)">
</g>
<g
   id="g24"
   transform="translate(12.932035,-110.07029)">
</g>
<g
   id="g26"
   transform="translate(12.932035,-110.07029)">
</g>
<g
   id="g28"
   transform="translate(12.932035,-110.07029)">
</g>
<g
   id="g30"
   transform="translate(12.932035,-110.07029)">
</g>
<g
   id="g32"
   transform="translate(12.932035,-110.07029)">
</g>
<g
   id="g34"
   transform="translate(12.932035,-110.07029)">
</g>
</svg>
