<?xml version="1.0" encoding="UTF-8" standalone="no"?>
<svg
   xmlns:dc="http://purl.org/dc/elements/1.1/"
   xmlns:cc="http://creativecommons.org/ns#"
   xmlns:rdf="http://www.w3.org/1999/02/22-rdf-syntax-ns#"
   xmlns:svg="http://www.w3.org/2000/svg"
   xmlns="http://www.w3.org/2000/svg"
   xmlns:sodipodi="http://sodipodi.sourceforge.net/DTD/sodipodi-0.dtd"
   xmlns:inkscape="http://www.inkscape.org/namespaces/inkscape"
   fill="#3c4043"
   version="1.1"
   id="Capa_1"
   x="0px"
   y="0px"
   width="291.85892"
   height="512"
   viewBox="0 0 291.85891 512.00002"
   xml:space="preserve"
   sodipodi:docname="arrow-right.svg"
   inkscape:version="1.0.2 (e86c870879, 2021-01-15, custom)"><metadata
   id="metadata41"><rdf:RDF><cc:Work
       rdf:about=""><dc:format>image/svg+xml</dc:format><dc:type
         rdf:resource="http://purl.org/dc/dcmitype/StillImage" /><dc:title></dc:title></cc:Work></rdf:RDF></metadata><defs
   id="defs39" /><sodipodi:namedview
   pagecolor="#ffffff"
   bordercolor="#666666"
   borderopacity="1"
   objecttolerance="10"
   gridtolerance="10"
   guidetolerance="10"
   inkscape:pageopacity="0"
   inkscape:pageshadow="2"
   inkscape:window-width="640"
   inkscape:window-height="480"
   id="namedview37"
   showgrid="false"
   fit-margin-top="0"
   fit-margin-left="0"
   fit-margin-right="0"
   fit-margin-bottom="0"
   inkscape:zoom="1.389851"
   inkscape:cx="128.7845"
   inkscape:cy="225.92374"
   inkscape:current-layer="g4" />
<g
   id="g4"
   transform="translate(-97.138501,2.49925e-4)">
	<path
   d="M 378.49675,281.34638 158.34492,501.49141 c -14.00432,14.01112 -36.70992,14.01112 -50.70743,0 -13.998652,-13.99865 -13.998652,-36.70311 0,-50.70063 L 302.43787,255.99607 107.64315,61.20815 c -13.998647,-14.004315 -13.998647,-36.706513 0,-50.705163 13.99865,-14.0043159 36.70312,-14.0043159 50.70743,0 L 378.50241,230.65142 c 6.99933,7.00272 10.49502,16.17085 10.49502,25.34351 0,9.1772 -3.50249,18.35213 -10.50068,25.35145 z"
   id="path2"
   style="stroke-width:1.13313" />
</g>
<g
   id="g6"
   transform="translate(-97.138501,2.49925e-4)">
</g>
<g
   id="g8"
   transform="translate(-97.138501,2.49925e-4)">
</g>
<g
   id="g10"
   transform="translate(-97.138501,2.49925e-4)">
</g>
<g
   id="g12"
   transform="translate(-97.138501,2.49925e-4)">
</g>
<g
   id="g14"
   transform="translate(-97.138501,2.49925e-4)">
</g>
<g
   id="g16"
   transform="translate(-97.138501,2.49925e-4)">
</g>
<g
   id="g18"
   transform="translate(-97.138501,2.49925e-4)">
</g>
<g
   id="g20"
   transform="translate(-97.138501,2.49925e-4)">
</g>
<g
   id="g22"
   transform="translate(-97.138501,2.49925e-4)">
</g>
<g
   id="g24"
   transform="translate(-97.138501,2.49925e-4)">
</g>
<g
   id="g26"
   transform="translate(-97.138501,2.49925e-4)">
</g>
<g
   id="g28"
   transform="translate(-97.138501,2.49925e-4)">
</g>
<g
   id="g30"
   transform="translate(-97.138501,2.49925e-4)">
</g>
<g
   id="g32"
   transform="translate(-97.138501,2.49925e-4)">
</g>
<g
   id="g34"
   transform="translate(-97.138501,2.49925e-4)">
</g>
</svg>
