<?xml version="1.0" encoding="UTF-8" standalone="no"?>
<svg
   xmlns:dc="http://purl.org/dc/elements/1.1/"
   xmlns:cc="http://creativecommons.org/ns#"
   xmlns:rdf="http://www.w3.org/1999/02/22-rdf-syntax-ns#"
   xmlns:svg="http://www.w3.org/2000/svg"
   xmlns="http://www.w3.org/2000/svg"
   xmlns:sodipodi="http://sodipodi.sourceforge.net/DTD/sodipodi-0.dtd"
   xmlns:inkscape="http://www.inkscape.org/namespaces/inkscape"
   fill="#3c4043"
   version="1.1"
   id="Capa_1"
   x="0px"
   y="0px"
   width="348.11569"
   height="512"
   viewBox="0 0 348.11568 511.99999"
   xml:space="preserve"
   sodipodi:docname="document-clip.svg"
   inkscape:version="1.0.2 (e86c870879, 2021-01-15, custom)"><metadata
   id="metadata41"><rdf:RDF><cc:Work
       rdf:about=""><dc:format>image/svg+xml</dc:format><dc:type
         rdf:resource="http://purl.org/dc/dcmitype/StillImage" /><dc:title></dc:title></cc:Work></rdf:RDF></metadata><defs
   id="defs39" /><sodipodi:namedview
   pagecolor="#ffffff"
   bordercolor="#666666"
   borderopacity="1"
   objecttolerance="10"
   gridtolerance="10"
   guidetolerance="10"
   inkscape:pageopacity="0"
   inkscape:pageshadow="2"
   inkscape:window-width="640"
   inkscape:window-height="480"
   id="namedview37"
   showgrid="false"
   fit-margin-top="0"
   fit-margin-left="0"
   fit-margin-right="0"
   fit-margin-bottom="0"
   inkscape:zoom="1.2275911"
   inkscape:cx="173.91151"
   inkscape:cy="255.78651"
   inkscape:current-layer="Capa_1" />
<g
   id="g4"
   transform="matrix(1.0008386,0,0,1.0008386,-81.94266,0.00100084)">
	<path
   d="M 347.574,40.988 H 247.056 C 238.157,17.437 215.643,0.544 189.124,0.059 c -0.198,0 -0.375,-0.06 -0.573,-0.06 -0.115,0 -0.201,0.018 -0.292,0.018 -0.112,0 -0.198,-0.018 -0.29,-0.018 -0.198,0 -0.381,0.06 -0.585,0.06 -26.495,0.484 -48.79,17.425 -57.689,40.929 h -18.968 c -15.903,0 -28.853,12.957 -28.853,28.859 v 412.867 c 0,15.918 12.95,28.856 28.853,28.856 h 290.116 c 15.917,0 28.855,-12.938 28.855,-28.856 V 130.221 Z m 6.809,43.179 35.996,39.117 H 354.383 Z M 188.258,27.769 c 11.012,0.095 20.835,5.234 27.287,13.219 h -54.347 c 6.399,-7.958 16.075,-13.124 27.06,-13.219 z m 217.206,454.94 c 0,2.547 -2.081,4.628 -4.635,4.628 H 110.727 c -2.55,0 -4.619,-2.081 -4.619,-4.628 V 69.839 c 0,-2.547 2.069,-4.61 4.619,-4.61 h 112.686 v 115.225 c 0,19.55 -15.9,35.468 -35.444,35.468 -19.562,0 -35.461,-15.918 -35.461,-35.468 v -64.826 c 0,-0.036 -0.023,-0.048 -0.023,-0.089 0,-0.035 0.023,-0.056 0.023,-0.098 0,-6.266 5.095,-11.36 11.361,-11.36 6.271,0 11.36,5.095 11.36,11.36 v 54.007 c 0,7.663 6.215,13.873 13.884,13.873 7.657,0 13.873,-6.209 13.873,-13.873 V 115.44 c 0,-21.565 -17.54,-39.117 -39.117,-39.117 -21.578,0 -39.112,17.546 -39.112,39.117 v 65.004 c 0,34.864 28.339,63.233 63.212,63.233 34.853,0 63.195,-28.369 63.195,-63.219 V 65.234 h 78.974 v 70.179 c 0,6.682 5.443,12.099 12.129,12.099 h 63.198 v 335.197 z"
   id="path2" />
</g>
<g
   id="g6"
   transform="translate(-81.874001,0.001)">
</g>
<g
   id="g8"
   transform="translate(-81.874001,0.001)">
</g>
<g
   id="g10"
   transform="translate(-81.874001,0.001)">
</g>
<g
   id="g12"
   transform="translate(-81.874001,0.001)">
</g>
<g
   id="g14"
   transform="translate(-81.874001,0.001)">
</g>
<g
   id="g16"
   transform="translate(-81.874001,0.001)">
</g>
<g
   id="g18"
   transform="translate(-81.874001,0.001)">
</g>
<g
   id="g20"
   transform="translate(-81.874001,0.001)">
</g>
<g
   id="g22"
   transform="translate(-81.874001,0.001)">
</g>
<g
   id="g24"
   transform="translate(-81.874001,0.001)">
</g>
<g
   id="g26"
   transform="translate(-81.874001,0.001)">
</g>
<g
   id="g28"
   transform="translate(-81.874001,0.001)">
</g>
<g
   id="g30"
   transform="translate(-81.874001,0.001)">
</g>
<g
   id="g32"
   transform="translate(-81.874001,0.001)">
</g>
<g
   id="g34"
   transform="translate(-81.874001,0.001)">
</g>
</svg>
