<?xml version="1.0" encoding="UTF-8" standalone="no"?>
<svg
   xmlns:dc="http://purl.org/dc/elements/1.1/"
   xmlns:cc="http://creativecommons.org/ns#"
   xmlns:rdf="http://www.w3.org/1999/02/22-rdf-syntax-ns#"
   xmlns:svg="http://www.w3.org/2000/svg"
   xmlns="http://www.w3.org/2000/svg"
   xmlns:sodipodi="http://sodipodi.sourceforge.net/DTD/sodipodi-0.dtd"
   xmlns:inkscape="http://www.inkscape.org/namespaces/inkscape"
   version="1.1"
   id="Capa_1"
   x="0px"
   y="0px"
   viewBox="0 0 511.99998 495.67589"
   xml:space="preserve"
   sodipodi:docname="house-black-silhouette-without-door.svg"
   width="512"
   height="495.6759"
   inkscape:version="1.0.2 (e86c870879, 2021-01-15, custom)"><metadata
   id="metadata41"><rdf:RDF><cc:Work
       rdf:about=""><dc:format>image/svg+xml</dc:format><dc:type
         rdf:resource="http://purl.org/dc/dcmitype/StillImage" /><dc:title></dc:title></cc:Work></rdf:RDF></metadata><defs
   id="defs39" /><sodipodi:namedview
   pagecolor="#ffffff"
   bordercolor="#666666"
   borderopacity="1"
   objecttolerance="10"
   gridtolerance="10"
   guidetolerance="10"
   inkscape:pageopacity="0"
   inkscape:pageshadow="2"
   inkscape:window-width="640"
   inkscape:window-height="480"
   id="namedview37"
   showgrid="false"
   fit-margin-top="0"
   fit-margin-left="0"
   fit-margin-right="0"
   fit-margin-bottom="0"
   inkscape:zoom="1.0235581"
   inkscape:cx="280.24249"
   inkscape:cy="236.89416"
   inkscape:current-layer="g4" />
<g
   id="g4"
   transform="translate(1.9727637e-4,-4.8902049)">
	<path
   style="fill:#3c4043;stroke-width:1.66898"
   d="m 505.58514,246.73217 c 9.28122,-10.2075 8.38497,-25.85255 -2.00111,-34.93515 L 274.7648,11.579147 C 264.37872,2.4965414 247.72727,2.6868055 237.55983,12.008075 L 7.9628497,222.47183 C -2.2045945,231.7931 -2.7036204,247.41812 6.857983,257.35692 l 5.756322,5.99498 c 9.549921,9.9388 24.986344,11.12377 34.456153,2.63866 l 17.158814,-15.36632 v 224.96555 c 0,13.80249 11.183855,24.97633 24.97633,24.97633 h 89.497538 c 13.79248,0 24.97633,-11.17384 24.97633,-24.97633 V 318.2047 h 114.1551 v 157.38509 c -0.19861,13.79248 9.67009,24.96632 23.46256,24.96632 h 94.84497 c 13.79247,0 24.97633,-11.17384 24.97633,-24.97633 V 253.79197 c 0,0 4.73991,4.15243 10.58636,9.29123 5.83643,5.12878 18.09511,1.01641 27.37632,-9.20111 z"
   id="path2" />
</g>
<g
   id="g6"
   transform="translate(1.9727637e-4,-4.8902049)">
</g>
<g
   id="g8"
   transform="translate(1.9727637e-4,-4.8902049)">
</g>
<g
   id="g10"
   transform="translate(1.9727637e-4,-4.8902049)">
</g>
<g
   id="g12"
   transform="translate(1.9727637e-4,-4.8902049)">
</g>
<g
   id="g14"
   transform="translate(1.9727637e-4,-4.8902049)">
</g>
<g
   id="g16"
   transform="translate(1.9727637e-4,-4.8902049)">
</g>
<g
   id="g18"
   transform="translate(1.9727637e-4,-4.8902049)">
</g>
<g
   id="g20"
   transform="translate(1.9727637e-4,-4.8902049)">
</g>
<g
   id="g22"
   transform="translate(1.9727637e-4,-4.8902049)">
</g>
<g
   id="g24"
   transform="translate(1.9727637e-4,-4.8902049)">
</g>
<g
   id="g26"
   transform="translate(1.9727637e-4,-4.8902049)">
</g>
<g
   id="g28"
   transform="translate(1.9727637e-4,-4.8902049)">
</g>
<g
   id="g30"
   transform="translate(1.9727637e-4,-4.8902049)">
</g>
<g
   id="g32"
   transform="translate(1.9727637e-4,-4.8902049)">
</g>
<g
   id="g34"
   transform="translate(1.9727637e-4,-4.8902049)">
</g>
</svg>
