<?xml version="1.0" encoding="UTF-8" standalone="no"?>
<svg
   xmlns:dc="http://purl.org/dc/elements/1.1/"
   xmlns:cc="http://creativecommons.org/ns#"
   xmlns:rdf="http://www.w3.org/1999/02/22-rdf-syntax-ns#"
   xmlns:svg="http://www.w3.org/2000/svg"
   xmlns="http://www.w3.org/2000/svg"
   xmlns:sodipodi="http://sodipodi.sourceforge.net/DTD/sodipodi-0.dtd"
   xmlns:inkscape="http://www.inkscape.org/namespaces/inkscape"
   width="512"
   height="238.16588"
   viewBox="0 0 135.46666 63.014723"
   version="1.1"
   id="svg959"
   inkscape:version="1.0.2 (e86c870879, 2021-01-15, custom)"
   sodipodi:docname="logo_BP_kran_light.svg">
  <defs
     id="defs953" />
  <sodipodi:namedview
     id="base"
     pagecolor="#ffffff"
     bordercolor="#666666"
     borderopacity="1.0"
     inkscape:pageopacity="0.0"
     inkscape:pageshadow="2"
     inkscape:zoom="1"
     inkscape:cx="189.43407"
     inkscape:cy="101.02164"
     inkscape:document-units="mm"
     inkscape:current-layer="g2139"
     inkscape:document-rotation="0"
     showgrid="false"
     showborder="true"
     units="px"
     fit-margin-top="0"
     fit-margin-left="0"
     fit-margin-right="0"
     fit-margin-bottom="0"
     inkscape:object-paths="true"
     inkscape:snap-intersection-paths="true"
     inkscape:snap-smooth-nodes="true"
     inkscape:snap-midpoints="true" />
  <metadata
     id="metadata956">
    <rdf:RDF>
      <cc:Work
         rdf:about="">
        <dc:format>image/svg+xml</dc:format>
        <dc:type
           rdf:resource="http://purl.org/dc/dcmitype/StillImage" />
        <dc:title></dc:title>
      </cc:Work>
    </rdf:RDF>
  </metadata>
  <g
     inkscape:label="kran"
     inkscape:groupmode="layer"
     id="layer1"
     transform="translate(64.77887,-95.994346)">
    <g
       id="g2139"
       transform="matrix(1.2755223,0,0,1.2755347,30.918398,11.208485)">
      <path
         id="path981"
         style="display:inline;fill:#44a7c8;fill-opacity:1;stroke:#000000;stroke-width:0;stroke-miterlimit:4;stroke-dasharray:none;stroke-opacity:1"
         d="m 6.0476211,66.471642 v 5.412589 1.105876 5.412073 1.106392 5.412073 1.106392 5.412073 1.106392 5.412072 1.105877 5.412589 1.10587 5.41259 1.10588 h 5.1159699 v -1.10588 -5.41259 -1.10587 -5.412589 -1.105877 -5.337658 h 0.002 5.87096 1.19993 5.87096 v -1.111043 l -4.07159,-2.500622 h 4.07159 v -1.104326 h -5.87096 -1.19993 -5.87096 -0.002 V 86.027037 84.920645 79.508572 78.40218 73.241255 L 9.9657311,71.884231 h -2.7125 v -3.754292 l 2.7125,3.754292 1.1988899,-5.29e-4 -1.1978599,-1.658813 -2.71301,-3.753247 z m 1.20561,6.518465 h 2.7125 v 3.753259 z m 0,1.658297 2.7125,3.753776 h -2.7125 z m 0,4.860168 h 2.7125 v 3.753259 z m 0,1.658297 2.7125,3.753776 h -2.7125 z m 0,4.860168 h 2.7125 v 1.876888 1.876371 z m 0,1.658297 2.7125,3.753776 h -2.7125 z m 18.0547099,0.218591 v 1.104842 l 4.07107,2.500106 h -4.07107 v 11.395687 h 5.3e-4 V 92.619916 h 5.87044 v -1.111043 l -4.07158,-2.500622 z m -14.14229,1.104326 4.07211,2.500622 h -4.07211 z m 1.79938,0 h 4.07158 v 2.500622 z m 5.27151,0 4.07159,2.500622 h -4.07159 z M 7.2532311,92.545502 h 2.7125 v 0.07493 3.678847 z m 0,1.658296 2.7125,3.753776 h -2.7125 z m 0,4.859653 h 2.7125 v 3.753769 z m 0,1.658809 2.7125,3.75378 h -2.7125 z m 0,4.85965 h 2.7125 v 3.75378 z m 0,1.65882 2.7125,3.75377 h -2.7125 z" />
      <g
         id="g1662"
         style="display:inline"
         transform="translate(-201.61567,66.471642)">
        <path
           style="display:inline;fill:#889eb7;fill-opacity:1;stroke:#000000;stroke-width:0;stroke-linecap:butt;stroke-linejoin:miter;stroke-miterlimit:4;stroke-dasharray:none;stroke-opacity:1"
           d="m 224.09154,42.26066 1.35648,-2.263706 h 1.74981 l 1.35739,2.263706 z"
           id="path1038" />
        <path
           style="display:inline;fill:#889eb7;fill-opacity:1;stroke:#000000;stroke-width:0;stroke-linecap:butt;stroke-linejoin:miter;stroke-miterlimit:4;stroke-dasharray:none;stroke-opacity:1"
           d="m 226.52826,42.63794 h 2.25337 l 1.35696,2.263804 h -3.61033 V 42.63794"
           id="path1040" />
        <path
           style="display:inline;fill:#889eb7;fill-opacity:1;stroke:#000000;stroke-width:0;stroke-linecap:butt;stroke-linejoin:miter;stroke-miterlimit:4;stroke-dasharray:none;stroke-opacity:1"
           d="m 229.98189,42.63794 h 1.1799 v 1.968312 z"
           id="path1042" />
        <path
           style="display:inline;fill:#889eb7;fill-opacity:1;stroke:#000000;stroke-width:0;stroke-linecap:butt;stroke-linejoin:miter;stroke-miterlimit:4;stroke-dasharray:none;stroke-opacity:1"
           d="m 223.86513,42.63794 h 2.2534 v 2.265452 h -3.61035 l 1.35695,-2.265452"
           id="path1044" />
        <path
           style="display:inline;fill:#889eb7;fill-opacity:1;stroke:#000000;stroke-width:0;stroke-linecap:butt;stroke-linejoin:miter;stroke-miterlimit:4;stroke-dasharray:none;stroke-opacity:1"
           d="m 221.48532,42.638006 v 1.952839 l 1.17308,-1.952839 h -1.17308"
           id="path1046" />
        <path
           style="display:inline;fill:#889eb7;fill-opacity:1;stroke:#000000;stroke-width:0;stroke-linecap:butt;stroke-linejoin:miter;stroke-miterlimit:4;stroke-dasharray:none;stroke-opacity:1"
           d="m 228.39869,39.996861 h 0.24188 v 0.403431 z"
           id="path1048" />
        <path
           style="display:inline;fill:#889eb7;fill-opacity:1;stroke:#000000;stroke-width:0;stroke-linecap:butt;stroke-linejoin:miter;stroke-miterlimit:4;stroke-dasharray:none;stroke-opacity:1"
           d="m 224.00651,39.996893 v 0.397197 l 0.23847,-0.397197 h -0.23847"
           id="path1050" />
      </g>
      <path
         style="display:inline;opacity:0.997;fill:#889eb7;fill-opacity:1;stroke:#000000;stroke-width:0;stroke-linecap:butt;stroke-linejoin:miter;stroke-miterlimit:4;stroke-dasharray:none;stroke-opacity:1"
         d="m 11.164401,71.883915 -1.1986599,6e-5 1.1978499,1.357088 z"
         id="path1052" />
      <path
         id="path1065"
         style="display:inline;opacity:0.995;fill:#f5f5f5;fill-opacity:1;stroke:#000000;stroke-width:0;stroke-linecap:butt;stroke-linejoin:miter;stroke-miterlimit:4;stroke-dasharray:none;stroke-opacity:1"
         d="m 11.164621,71.883715 -0.001,1.35754 12.94391,14.66267 v 16.103925 l -4.64726,7.73596 5.3e-4,1.12086 h 10.49445 v -1.1038 l -4.64725,-7.75302 V 87.903925 Z m 13.54284,33.125105 4.04782,6.75205 -8.09511,0.002 z" />
      <path
         style="display:inline;fill:#889eb7;fill-opacity:1;stroke:#000000;stroke-width:0;stroke-linecap:butt;stroke-linejoin:miter;stroke-miterlimit:4;stroke-dasharray:none;stroke-opacity:1"
         d="m 5.0796011,112.10042 h 7.0596499 l 1.69825,1.88651 v 1.8865 H 3.373761 v -1.8865 z"
         id="path1071" />
    </g>
    <rect
       style="display:inline;fill:#889eb7;fill-opacity:1;stroke:#889eb7;stroke-width:0;stroke-miterlimit:4;stroke-dasharray:none;stroke-opacity:1"
       id="rect964"
       width="12.547265"
       height="12.545078"
       x="-11.481563"
       y="95.994347" />
    <rect
       style="display:inline;fill:#889eb7;fill-opacity:1;stroke:#889eb7;stroke-width:0;stroke-miterlimit:4;stroke-dasharray:none;stroke-opacity:1"
       id="rect969"
       width="12.547242"
       height="12.545031"
       x="-11.481563"
       y="125.62654" />
    <rect
       style="display:inline;fill:#44a7c8;fill-opacity:1;stroke:#889eb7;stroke-width:0;stroke-miterlimit:4;stroke-dasharray:none;stroke-opacity:1"
       id="rect973"
       width="12.547265"
       height="17.087147"
       x="-11.481563"
       y="108.5394" />
    <rect
       style="display:inline;fill:#44a7c8;fill-opacity:1;stroke:#889eb7;stroke-width:0;stroke-miterlimit:4;stroke-dasharray:none;stroke-opacity:1"
       id="rect975"
       width="12.547265"
       height="20.83597"
       x="-11.481563"
       y="138.17157" />
    <path
       id="path959"
       style="display:inline;fill:#f5f5f5;fill-opacity:1;stroke:#000000;stroke-width:0;stroke-miterlimit:4;stroke-dasharray:none;stroke-opacity:1"
       d="M 1.0652929,95.994362 V 108.53946 H 13.882117 a 8.5450965,8.5436036 0 0 1 8.543555,8.54455 8.5450965,8.5436036 0 0 1 -8.543555,8.54257 H 1.0652929 v 12.54506 H 13.882117 A 21.092719,21.089035 0 0 0 34.973741,117.08401 21.092719,21.089035 0 0 0 13.989222,95.994362 h -0.107103 z" />
    <path
       id="path872"
       style="display:inline;fill:#f5f5f5;fill-opacity:1;stroke:#000000;stroke-width:0;stroke-miterlimit:4;stroke-dasharray:none;stroke-opacity:1"
       d="m -64.77887,95.995156 v 12.548324 h 24.516487 0.04067 0.0119 c 3.066888,-9.1e-4 5.553435,2.50507 5.553672,5.59632 -2.33e-4,3.09125 -2.486841,5.59632 -5.553672,5.59532 h 3.249889 a 19.694199,19.637287 0 0 1 0.1329,-10e-4 19.694199,19.637287 0 0 1 0.06743,0 19.694199,19.637287 0 0 1 18.402489,12.64452 h 0.0031 a 19.641556,19.638078 0 0 0 -6.648538,-8.7748 c 1.638964,-2.77944 2.564485,-6.01759 2.564606,-9.42439 -7.1e-4,-9.39571 -6.960439,-17.320922 -16.056063,-18.184303 z" />
    <path
       id="path884"
       style="display:inline;fill:#889eb7;fill-opacity:1;stroke:#889eb7;stroke-width:0;stroke-miterlimit:4;stroke-dasharray:none;stroke-opacity:1"
       d="m -36.827041,119.73412 a 19.694199,19.637287 0 0 0 -0.132899,10e-4 h -3.24989 -16.740353 -7.741422 v 12.64352 h 9.528515 18.455049 l 11.696429,-8.76787 a 19.694199,19.637287 0 0 0 -11.747999,-3.87667 19.694199,19.637287 0 0 0 -0.06743,0 z" />
    <path
       id="path897"
       style="display:inline;fill:#44a7c8;fill-opacity:1;stroke:#000000;stroke-width:0;stroke-miterlimit:4;stroke-dasharray:none;stroke-opacity:1"
       d="m -25.012842,123.61112 -11.695437,8.76687 a 7.0446383,7.0434796 0 0 1 7.043245,7.04127 7.0446383,7.0434796 0 0 1 -7.043245,7.04423 h -18.312243 -9.756611 v 12.54535 h 28.068854 a 19.641556,19.638078 0 0 0 19.642147,-19.63818 19.641556,19.638078 0 0 0 -1.288253,-6.99267 h -0.0031 a 19.694199,19.637287 0 0 0 -6.655461,-8.76687 z m 1.518333,1.23173 a 19.641556,19.638078 0 0 1 0.129925,0.12 19.641556,19.638078 0 0 0 -0.129925,-0.12 z m 3.633691,4.43403 a 19.641556,19.638078 0 0 1 0.134874,0.22907 19.641556,19.638078 0 0 0 -0.134874,-0.22907 z m 0.643629,1.1613 a 19.641556,19.638078 0 0 1 0.119004,0.237 19.641556,19.638078 0 0 0 -0.119004,-0.237 z" />
  </g>
</svg>
