<?xml version="1.0" encoding="UTF-8" standalone="no"?>
<svg
   xmlns:dc="http://purl.org/dc/elements/1.1/"
   xmlns:cc="http://creativecommons.org/ns#"
   xmlns:rdf="http://www.w3.org/1999/02/22-rdf-syntax-ns#"
   xmlns:svg="http://www.w3.org/2000/svg"
   xmlns="http://www.w3.org/2000/svg"
   xmlns:sodipodi="http://sodipodi.sourceforge.net/DTD/sodipodi-0.dtd"
   xmlns:inkscape="http://www.inkscape.org/namespaces/inkscape"
   fill="#3c4043"
   version="1.1"
   id="Capa_1"
   x="0px"
   y="0px"
   viewBox="0 0 512.00001 512.00001"
   xml:space="preserve"
   sodipodi:docname="plus.svg"
   width="512"
   height="512"
   inkscape:version="1.0.2 (e86c870879, 2021-01-15, custom)"><metadata
   id="metadata43"><rdf:RDF><cc:Work
       rdf:about=""><dc:format>image/svg+xml</dc:format><dc:type
         rdf:resource="http://purl.org/dc/dcmitype/StillImage" /><dc:title></dc:title></cc:Work></rdf:RDF></metadata><defs
   id="defs41" /><sodipodi:namedview
   pagecolor="#ffffff"
   bordercolor="#666666"
   borderopacity="1"
   objecttolerance="10"
   gridtolerance="10"
   guidetolerance="10"
   inkscape:pageopacity="0"
   inkscape:pageshadow="2"
   inkscape:window-width="640"
   inkscape:window-height="480"
   id="namedview39"
   showgrid="false"
   inkscape:object-paths="true"
   inkscape:snap-intersection-paths="true"
   inkscape:snap-midpoints="true"
   inkscape:snap-smooth-nodes="true"
   fit-margin-top="0"
   fit-margin-left="0"
   fit-margin-right="0"
   fit-margin-bottom="0"
   inkscape:lockguides="false"
   inkscape:zoom="0.45987113"
   inkscape:cx="1228.1416"
   inkscape:cy="550.22595"
   inkscape:current-layer="Capa_1" />

<g
   id="g8"
   style="fill:#3c4043"
   transform="matrix(0.47851787,0,0,0.47851787,10.192437,10.192434)">
</g>
<g
   id="g10"
   style="fill:#3c4043"
   transform="matrix(0.47851787,0,0,0.47851787,10.192437,10.192434)">
</g>
<g
   id="g12"
   style="fill:#3c4043"
   transform="matrix(0.47851787,0,0,0.47851787,10.192437,10.192434)">
</g>
<g
   id="g14"
   style="fill:#3c4043"
   transform="matrix(0.47851787,0,0,0.47851787,10.192437,10.192434)">
</g>
<g
   id="g16"
   style="fill:#3c4043"
   transform="matrix(0.47851787,0,0,0.47851787,10.192437,10.192434)">
</g>
<g
   id="g18"
   style="fill:#3c4043"
   transform="matrix(0.47851787,0,0,0.47851787,10.192437,10.192434)">
</g>
<g
   id="g20"
   style="fill:#3c4043"
   transform="matrix(0.47851787,0,0,0.47851787,10.192437,10.192434)">
</g>
<g
   id="g22"
   style="fill:#3c4043"
   transform="matrix(0.47851787,0,0,0.47851787,10.192437,10.192434)">
</g>
<g
   id="g24"
   style="fill:#3c4043"
   transform="matrix(0.47851787,0,0,0.47851787,10.192437,10.192434)">
</g>
<g
   id="g26"
   style="fill:#3c4043"
   transform="matrix(0.47851787,0,0,0.47851787,10.192437,10.192434)">
</g>
<g
   id="g28"
   style="fill:#3c4043"
   transform="matrix(0.47851787,0,0,0.47851787,10.192437,10.192434)">
</g>
<g
   id="g30"
   style="fill:#3c4043"
   transform="matrix(0.47851787,0,0,0.47851787,10.192437,10.192434)">
</g>
<g
   id="g32"
   style="fill:#3c4043"
   transform="matrix(0.47851787,0,0,0.47851787,10.192437,10.192434)">
</g>
<g
   id="g34"
   style="fill:#3c4043"
   transform="matrix(0.47851787,0,0,0.47851787,10.192437,10.192434)">
</g>
<g
   id="g36"
   style="fill:#3c4043"
   transform="matrix(0.47851787,0,0,0.47851787,10.192437,10.192434)">
</g>
<g
   id="g883"
   style="fill:#3c4043"
   transform="matrix(2.7863815,0,0,2.7863815,-202.50793,-293.74024)"><g
     id="g6"
     style="fill:#3c4043"
     transform="matrix(0.47851787,0,0,0.47851787,82.870182,115.6124)">
	<g
   id="g4"
   style="fill:#3c4043">
		<polygon
   points="149.4,192 149.4,341.4 192,341.4 192,192 341.4,192 341.4,149.4 192,149.4 192,0 149.4,0 149.4,149.4 0,149.4 0,192 "
   id="polygon2"
   style="fill:#3c4043" />
	</g>
</g><circle
     style="opacity:0.995;fill:#3c4043;stroke:#000000;stroke-width:0;stroke-linejoin:round"
     id="path868"
     cx="164.55318"
     cy="115.6124"
     r="10.192432" /><circle
     style="opacity:0.995;fill:#3c4043;stroke:#000000;stroke-width:0;stroke-linejoin:round"
     id="circle870"
     cx="82.870178"
     cy="197.29539"
     r="10.192432" /><circle
     style="opacity:0.995;fill:#3c4043;stroke:#000000;stroke-width:0;stroke-linejoin:round"
     id="circle872"
     cx="246.23618"
     cy="197.29539"
     r="10.192432" /><circle
     style="opacity:0.995;fill:#3c4043;stroke:#000000;stroke-width:0;stroke-linejoin:round"
     id="circle874"
     cx="164.55318"
     cy="278.97839"
     r="10.192432" /></g></svg>
