<?xml version="1.0" encoding="UTF-8" standalone="no"?>
<svg
   xmlns:dc="http://purl.org/dc/elements/1.1/"
   xmlns:cc="http://creativecommons.org/ns#"
   xmlns:rdf="http://www.w3.org/1999/02/22-rdf-syntax-ns#"
   xmlns:svg="http://www.w3.org/2000/svg"
   xmlns="http://www.w3.org/2000/svg"
   xmlns:sodipodi="http://sodipodi.sourceforge.net/DTD/sodipodi-0.dtd"
   xmlns:inkscape="http://www.inkscape.org/namespaces/inkscape"
   fill="#3c4043"
   version="1.1"
   id="Capa_1"
   x="0px"
   y="0px"
   viewBox="0 0 128.00074 511.99999"
   xml:space="preserve"
   sodipodi:docname="seting.svg"
   width="128.00075"
   height="512"
   inkscape:version="1.0.2 (e86c870879, 2021-01-15, custom)"><metadata
   id="metadata49"><rdf:RDF><cc:Work
       rdf:about=""><dc:format>image/svg+xml</dc:format><dc:type
         rdf:resource="http://purl.org/dc/dcmitype/StillImage" /><dc:title></dc:title></cc:Work></rdf:RDF></metadata><defs
   id="defs47" /><sodipodi:namedview
   pagecolor="#ffffff"
   bordercolor="#666666"
   borderopacity="1"
   objecttolerance="10"
   gridtolerance="10"
   guidetolerance="10"
   inkscape:pageopacity="0"
   inkscape:pageshadow="2"
   inkscape:window-width="640"
   inkscape:window-height="480"
   id="namedview45"
   showgrid="false"
   fit-margin-top="0"
   fit-margin-left="0"
   fit-margin-right="0"
   fit-margin-bottom="0"
   inkscape:zoom="1.8398455"
   inkscape:cx="42.6665"
   inkscape:cy="170.6665"
   inkscape:current-layer="Capa_1" />
<g
   id="g12"
   transform="matrix(1.4999971,0,0,1.4999971,-191.99963,0)">
	<g
   id="g10">
		<g
   id="g8">
			<path
   d="m 170.667,85.333 c 23.573,0 42.667,-19.093 42.667,-42.667 C 213.333,19.093 194.24,0 170.667,0 147.094,0 128,19.093 128,42.667 c 0,23.573 19.093,42.666 42.667,42.666 z"
   id="path2" />
			<path
   d="M 170.667,128 C 147.093,128 128,147.093 128,170.667 c 0,23.574 19.093,42.667 42.667,42.667 23.574,0 42.667,-19.093 42.667,-42.667 C 213.334,147.093 194.24,128 170.667,128 Z"
   id="path4" />
			<path
   d="M 170.667,256 C 147.093,256 128,275.093 128,298.667 c 0,23.573 19.093,42.667 42.667,42.667 23.574,0 42.667,-19.093 42.667,-42.667 C 213.333,275.093 194.24,256 170.667,256 Z"
   id="path6" />
		</g>
	</g>
</g>
<g
   id="g14"
   transform="translate(-128)">
</g>
<g
   id="g16"
   transform="translate(-128)">
</g>
<g
   id="g18"
   transform="translate(-128)">
</g>
<g
   id="g20"
   transform="translate(-128)">
</g>
<g
   id="g22"
   transform="translate(-128)">
</g>
<g
   id="g24"
   transform="translate(-128)">
</g>
<g
   id="g26"
   transform="translate(-128)">
</g>
<g
   id="g28"
   transform="translate(-128)">
</g>
<g
   id="g30"
   transform="translate(-128)">
</g>
<g
   id="g32"
   transform="translate(-128)">
</g>
<g
   id="g34"
   transform="translate(-128)">
</g>
<g
   id="g36"
   transform="translate(-128)">
</g>
<g
   id="g38"
   transform="translate(-128)">
</g>
<g
   id="g40"
   transform="translate(-128)">
</g>
<g
   id="g42"
   transform="translate(-128)">
</g>
</svg>
